<?xml version="1.0" ?><!-- Uploaded to: SVG Repo, www.svgrepo.com, Generator: SVG Repo Mixer Tools -->
<svg width="800px" height="800px" viewBox="0 0 2050 2050" data-name="Layer 2" id="Layer_2" xmlns="http://www.w3.org/2000/svg"><defs><style>.cls-1{fill:#c8c2e9;}.cls-2{fill:#b1a9db;}.cls-3{fill:#8a87b2;}.cls-4{fill:#7c79ab;}.cls-5{fill:#67baeb;}.cls-6{fill:#46a1f8;}.cls-7{fill:#323150;}.cls-8{fill:#4d4c78;}.cls-9{fill:#64639c;}.cls-10{fill:#dfdafd;}.cls-11{fill:#83d0fb;}</style></defs><title/><path class="cls-1" d="M1514.8,462H499a94.3,94.3,0,0,0-94.2,94.3V1842a94.3,94.3,0,0,0,94.2,94.3h786.6l323.5-310V556.3A94.3,94.3,0,0,0,1514.8,462Z"/><path class="cls-2" d="M594.2,1845.2a94.3,94.3,0,0,1-94.3-94.2V465.2c0-1,.1-2.1.1-3.2h-1a94.3,94.3,0,0,0-94.2,94.3V1842a94.3,94.3,0,0,0,94.2,94.3h786.6l95-91.1Z"/><path class="cls-3" d="M1379.9,1626.3a94.3,94.3,0,0,0-94.3,94.3v215.7l323.5-310Z"/><path class="cls-4" d="M1351,1676.4a93,93,0,0,1,13.6-48.8,94.3,94.3,0,0,0-79,93v215.7l65.4-62.6Z"/><rect class="cls-5" height="108.32" transform="translate(192.6 1012.9) rotate(-45)" width="197.7" x="1220.1" y="219.7"/><rect class="cls-6" height="38.67" transform="translate(182.4 1037.5) rotate(-45)" width="197.7" x="1244.7" y="279.2"/><path class="cls-7" d="M957.1,655.8a20.1,20.1,0,0,1-14.2-34.2l175.8-175.8a20,20,0,0,1,28.3,28.3L971.2,649.9A19.9,19.9,0,0,1,957.1,655.8Z"/><path class="cls-5" d="M1188.5,309.1h5a144.2,144.2,0,0,1,144.2,144.2v41.3a0,0,0,0,1,0,0H1044.3a0,0,0,0,1,0,0V453.3A144.2,144.2,0,0,1,1188.5,309.1Z" transform="translate(633 -724.4) rotate(45)"/><path class="cls-6" d="M1260.9,484.8h0a41.3,41.3,0,0,1-58.4,0L1051.6,333.9h-.1l-29.8,29.8,207.4,207.5,29.2-29.3a143.6,143.6,0,0,0,40.5-124.1A143.5,143.5,0,0,1,1260.9,484.8Z"/><rect class="cls-8" height="108.91" rx="54.5" ry="54.5" transform="translate(538.5 -952.5) rotate(45)" width="253.1" x="1292.5" y="119.3"/><rect class="cls-9" height="50.54" rx="25.3" ry="25.3" transform="translate(523.5 -970.5) rotate(45)" width="117.5" x="1374.5" y="121.5"/><path class="cls-7" d="M1457.8,237l-102-102A54.5,54.5,0,0,1,1345,73.5a53.7,53.7,0,0,0-15.4,10.8h0a54.4,54.4,0,0,0,0,77l101.9,102a54.7,54.7,0,0,0,77.1,0h0a54.2,54.2,0,0,0,10.8-15.5A54.3,54.3,0,0,1,1457.8,237Z"/><path class="cls-7" d="M1384,835.4H624.8a20,20,0,0,1,0-40H1384a20,20,0,0,1,0,40Z"/><path class="cls-7" d="M1238.3,993.6H624.8a20,20,0,0,1,0-40h613.5a20,20,0,0,1,0,40Z"/><path class="cls-7" d="M1238.3,1151.7H624.8a20,20,0,0,1,0-40h613.5a20,20,0,0,1,0,40Z"/><path class="cls-7" d="M1238.3,1484.5H624.8a20,20,0,0,1,0-40h613.5a20,20,0,1,1,0,40Z"/><path class="cls-7" d="M1345.6,1309.9H624.8a20,20,0,0,1,0-40h720.8a20,20,0,0,1,0,40Z"/><polygon class="cls-2" points="1285.6 1720.6 1196.3 1936.3 1285.6 1936.3 1285.6 1720.6"/><rect class="cls-10" height="482.23" rx="40.8" ry="40.8" width="81.6" x="1527.5" y="765.5"/><path class="cls-11" d="M1258.3,338.1l-3.5-3.6a144.1,144.1,0,0,0-142.5-36.4A114.1,114.1,0,0,0,1288.8,383,142,142,0,0,0,1258.3,338.1Z"/><rect class="cls-11" height="105.03" rx="20.5" ry="20.5" transform="translate(556.7 -839.7) rotate(45)" width="41.1" x="1271.4" y="199.6"/></svg>