<?xml version="1.0" encoding="iso-8859-1"?>
<!-- Uploaded to: SVG Repo, www.svgrepo.com, Generator: SVG Repo Mixer Tools -->
<svg height="800px" width="800px" version="1.1" id="Layer_1" xmlns="http://www.w3.org/2000/svg" xmlns:xlink="http://www.w3.org/1999/xlink" 
	 viewBox="0 0 512 512" xml:space="preserve">
<path style="fill:#FA6E51;" d="M0,256.006C0,397.402,114.606,512.004,255.996,512C397.394,512.004,512,397.402,512,256.006
	C512.009,114.61,397.394,0,255.996,0C114.606,0,0,114.614,0,256.006z"/>
<path style="fill:#E8573F;" d="M511.107,276.539c-0.107-0.101-0.206-0.211-0.314-0.314c-0.492-0.524-69.239-69.27-69.763-69.763
	c-5.326-5.665-12.517-9.439-20.602-10.511c-0.048-0.045-0.108-0.077-0.155-0.119c-0.487-0.523-31.323-31.361-31.847-31.847
	c-7.214-7.732-18.187-11.709-33.025-11.709H156.599c-28.674,0-43.219,14.544-43.219,43.219v4.807
	c-5.105-2.977-10.961-4.807-17.286-4.807c-19.068,0-34.576,15.505-34.576,34.574v69.15c0,9.921,4.256,18.813,10.97,25.123
	c0.491,0.523,0.991,1.022,1.515,1.515c0.492,0.524,184.502,184.532,185.026,185.026c0.33,0.352,0.673,0.681,1.015,1.015
	C392.674,509.837,500.745,406.992,511.107,276.539z"/>
<path style="fill:#F4F6F9;" d="M415.906,195.494c-6.326,0-12.181,1.83-17.287,4.807v-4.807c0-28.674-14.544-43.218-43.218-43.218
	H156.598c-28.674,0-43.218,14.544-43.218,43.218v4.807c-5.106-2.976-10.961-4.807-17.287-4.807
	c-19.068,0-34.575,15.506-34.575,34.574v69.149c0,19.068,15.506,34.575,34.575,34.575h17.287v17.287
	c0,4.778,3.866,8.643,8.643,8.643c4.778,0,8.643-3.866,8.643-8.643v-17.287h250.665v17.287c0,4.778,3.866,8.643,8.643,8.643
	c4.778,0,8.643-3.866,8.643-8.643v-17.287h17.178c19.127,0,34.684-15.506,34.684-34.575v-69.148
	C450.481,211.001,434.975,195.494,415.906,195.494z M130.668,195.494c0-19.145,6.786-25.931,25.931-25.931h198.803
	c19.145,0,25.931,6.786,25.931,25.931V256H130.668V195.494z M433.194,299.218c0,9.53-7.808,17.287-17.397,17.287H96.094
	c-9.53,0-17.287-7.757-17.287-17.287v-69.149c0-9.53,7.757-17.287,17.287-17.287s17.287,7.757,17.287,17.287v43.218H398.62v-43.218
	c0-9.53,7.757-17.287,17.287-17.287c9.53,0,17.287,7.757,17.287,17.287v69.149H433.194z"/>
</svg>