<?xml version="1.0" encoding="iso-8859-1"?>
<!-- Uploaded to: SVG Repo, www.svgrepo.com, Generator: SVG Repo Mixer Tools -->
<svg height="800px" width="800px" version="1.1" id="Layer_1" xmlns="http://www.w3.org/2000/svg" xmlns:xlink="http://www.w3.org/1999/xlink" 
	 viewBox="0 0 512 512" xml:space="preserve">
<path style="fill:#4FC0E8;" d="M512,256.006C512,397.402,397.394,512.004,256.004,512C114.606,512.004,0,397.402,0,256.006
	C-0.007,114.61,114.606,0,256.004,0C397.394,0,512,114.614,512,256.006z"/>
<path style="fill:#3DAED9;" d="M512,256.005c0-8.108-0.422-16.116-1.158-24.031c-0.457-0.479-144.171-144.202-144.718-144.718
	c-6.868-7.293-16.541-11.913-27.324-11.913H173.2c-20.753,0-37.638,16.884-37.638,37.636v286.037
	c0,10.783,4.62,20.453,11.911,27.323c0.515,0.547,83.847,83.878,84.399,84.398c0.034,0.036,0.07,0.068,0.105,0.105
	c7.914,0.737,15.921,1.157,24.028,1.157C397.394,512.004,512,397.401,512,256.005z"/>
<g>
	<path style="fill:#F6F6F6;" d="M338.8,75.345H173.2c-20.752,0-37.636,16.885-37.636,37.636v286.037
		c0,20.752,16.885,37.636,37.636,37.636h165.6c20.752,0,37.636-16.885,37.636-37.636V112.981
		C376.436,92.23,359.552,75.345,338.8,75.345z M150.618,173.2h210.764v180.655H150.618V173.2z M173.2,90.4h165.6
		c12.452,0,22.582,10.129,22.582,22.582v45.164H150.618v-45.165C150.618,100.529,160.748,90.4,173.2,90.4z M338.8,421.6H173.2
		c-12.452,0-22.582-10.129-22.582-22.582v-30.109h210.764v30.109C361.382,411.471,351.252,421.6,338.8,421.6z"/>
	<path style="fill:#F6F6F6;" d="M256,376.436c-8.306,0-15.055,6.734-15.055,15.055c0,8.307,6.748,15.055,15.055,15.055
		c8.321,0,15.055-6.748,15.055-15.055C271.055,383.17,264.321,376.436,256,376.436z"/>
	<path style="fill:#F6F6F6;" d="M218.364,128.036h75.273c4.157,0,7.527-3.371,7.527-7.527c0-4.157-3.371-7.527-7.527-7.527h-75.273
		c-4.157,0-7.527,3.371-7.527,7.527C210.836,124.666,214.207,128.036,218.364,128.036z"/>
</g>
</svg>